<svg version="1.1" id="Layer_1" xmlns="http://www.w3.org/2000/svg" xmlns:xlink="http://www.w3.org/1999/xlink" x="0px" y="0px"
	 width="100%" viewBox="0 0 2561 2561" enable-background="new 0 0 2561 2561" xml:space="preserve">
<path fill="#000101" opacity="1.000000" stroke="none" 
	d="
M2.000000,912.000000 
	C2.000000,608.000000 2.000000,305.000000 2.000000,2.000000 
	C856.000000,2.000000 1710.000000,2.000000 2564.000000,2.000000 
	C2564.000000,856.000000 2564.000000,1710.000000 2564.000000,2564.000000 
	C1710.000000,2564.000000 856.000000,2564.000000 2.000000,2564.000000 
	C2.000000,2013.666626 2.000000,1463.333374 2.000000,912.000000 
M2343.259033,2314.216553 
	C2362.157227,2311.018311 2379.841064,2304.320312 2396.491699,2295.019775 
	C2426.785156,2278.098877 2450.658203,2254.541504 2467.444336,2224.130127 
	C2483.882080,2194.349854 2490.447021,2162.250488 2490.437744,2128.288574 
	C2490.289795,1594.975220 2490.348877,1061.661865 2490.250000,528.348572 
	C2490.247314,514.097107 2489.395752,499.815186 2488.273438,485.600128 
	C2484.331787,435.685944 2466.614502,390.722656 2437.881836,350.078400 
	C2415.932373,319.029663 2388.431641,293.787933 2355.904053,273.898590 
	C2312.906250,247.606964 2266.331299,233.250183 2216.009766,233.235138 
	C1592.366455,233.048767 968.723145,233.110382 345.079803,233.151215 
	C337.104645,233.151733 329.115692,233.507950 321.156647,234.045563 
	C270.135376,237.491943 224.015411,254.699905 182.157822,283.790405 
	C146.849472,308.329254 118.902901,339.660248 98.188042,377.149933 
	C76.132217,417.066467 63.723175,459.901093 63.705627,505.794128 
	C63.619850,730.119080 63.663898,954.443970 63.663830,1178.768921 
	C63.663727,1504.756714 63.624432,1830.744629 63.726234,2156.732422 
	C63.736935,2190.992188 74.266930,2222.161133 94.597038,2249.674805 
	C128.667709,2295.784180 175.126038,2317.882812 232.004303,2317.955811 
	C392.331360,2318.160889 552.658875,2318.027344 712.986206,2318.027344 
	C1243.632935,2318.027588 1774.279785,2318.049805 2304.926514,2317.887451 
	C2317.155273,2317.883789 2329.383545,2315.797363 2343.259033,2314.216553 
z"/>
<path fill="#65CCC8" opacity="1.000000" stroke="none" 
	d="
M2342.435547,2314.449219 
	C2329.383545,2315.797363 2317.155273,2317.883789 2304.926514,2317.887451 
	C1774.279785,2318.049805 1243.632935,2318.027588 712.986206,2318.027344 
	C552.658875,2318.027344 392.331360,2318.160889 232.004303,2317.955811 
	C175.126038,2317.882812 128.667709,2295.784180 94.597038,2249.674805 
	C74.266930,2222.161133 63.736935,2190.992188 63.726234,2156.732422 
	C63.624432,1830.744629 63.663727,1504.756714 63.663830,1178.768921 
	C63.663898,954.443970 63.619850,730.119080 63.705627,505.794128 
	C63.723175,459.901093 76.132217,417.066467 98.188042,377.149933 
	C118.902901,339.660248 146.849472,308.329254 182.157822,283.790405 
	C224.015411,254.699905 270.135376,237.491943 321.156647,234.045563 
	C329.115692,233.507950 337.104645,233.151733 345.079803,233.151215 
	C968.723145,233.110382 1592.366455,233.048767 2216.009766,233.235138 
	C2266.331299,233.250183 2312.906250,247.606964 2355.904053,273.898590 
	C2388.431641,293.787933 2415.932373,319.029663 2437.881836,350.078400 
	C2466.614502,390.722656 2484.331787,435.685944 2488.273438,485.600128 
	C2489.395752,499.815186 2490.247314,514.097107 2490.250000,528.348572 
	C2490.348877,1061.661865 2490.289795,1594.975220 2490.437744,2128.288574 
	C2490.447021,2162.250488 2483.882080,2194.349854 2467.444336,2224.130127 
	C2450.658203,2254.541504 2426.785156,2278.098877 2396.491699,2295.019775 
	C2379.841064,2304.320312 2362.157227,2311.018311 2342.435547,2314.449219 
M959.000000,2194.026855 
	C1404.953613,2194.026855 1850.907227,2194.031006 2296.860840,2193.985596 
	C2303.167725,2193.984863 2309.516357,2193.714355 2315.774658,2192.973145 
	C2345.148682,2189.493896 2365.824463,2161.817627 2365.811523,2136.053711 
	C2365.604004,1721.762329 2365.664795,1307.470947 2365.664551,893.179626 
	C2365.664551,889.589966 2365.664551,886.000366 2365.664551,881.760559 
	C1639.329834,881.760559 913.978516,881.760559 187.666031,881.760559 
	C187.666031,886.451355 187.666031,890.713745 187.666031,894.976135 
	C187.666153,1251.606689 187.666168,1608.237183 187.666397,1964.867676 
	C187.666443,2027.194702 187.772614,2089.521973 187.600616,2151.848389 
	C187.552109,2169.432129 195.842407,2181.649414 210.759964,2189.569092 
	C219.162262,2194.029785 228.708923,2194.034912 238.072891,2194.034424 
	C477.715271,2194.024902 717.357605,2194.026855 959.000000,2194.026855 
M1266.342529,579.000122 
	C1266.342529,542.003662 1266.415527,505.007080 1266.322021,468.010895 
	C1266.229004,431.187653 1266.735107,394.353668 1265.995605,357.098877 
	C1260.746338,357.098877 1256.758545,357.098907 1252.770752,357.098907 
	C950.464905,357.098907 648.158997,357.015594 345.853271,357.186523 
	C299.206573,357.212891 259.910095,374.772980 228.450562,409.526917 
	C201.792786,438.976166 188.794434,473.935303 188.502655,513.177551 
	C187.925293,590.832825 188.332169,668.495483 188.332169,746.155090 
	C188.332169,749.401672 188.332184,752.648254 188.332184,756.494019 
	C548.055420,756.494019 906.828674,756.494019 1266.342529,756.494019 
	C1266.342529,697.584412 1266.342529,639.292297 1266.342529,579.000122 
M2275.325928,373.532288 
	C2256.250977,364.055634 2235.920166,359.390900 2214.764160,359.200714 
	C2175.115967,358.844330 2135.462158,359.084412 2095.810791,359.126556 
	C2092.932373,359.129608 2090.054443,359.538330 2086.800293,359.787170 
	C2086.800293,492.976135 2086.800293,625.430847 2086.800293,759.120239 
	C2110.488281,759.120239 2133.724854,759.120239 2156.961670,759.120239 
	C2179.952881,759.120239 2202.944092,759.120239 2225.935303,759.120239 
	C2249.259766,759.120239 2272.585449,759.277893 2295.907959,759.075684 
	C2319.018066,758.875366 2342.169922,759.965332 2365.667725,758.418945 
	C2365.667725,753.579407 2365.667969,749.929932 2365.667969,746.280518 
	C2365.667969,669.643250 2365.699951,593.005920 2365.611328,516.368774 
	C2365.603760,509.762451 2365.171387,503.107391 2364.302734,496.558990 
	C2356.831787,440.240326 2327.312256,399.618042 2275.325928,373.532288 
M1963.671387,395.001556 
	C1963.671387,382.756165 1963.671387,370.510742 1963.671387,357.695557 
	C1888.199829,357.695557 1813.793579,357.695557 1739.043579,357.695557 
	C1739.043579,490.943420 1739.043579,623.586121 1739.043579,756.386292 
	C1814.196655,756.386292 1888.630737,756.386292 1963.671387,756.386292 
	C1963.671387,636.101501 1963.671387,516.551331 1963.671387,395.001556 
M1389.654907,548.999878 
	C1389.654907,618.785583 1389.654907,688.571289 1389.654907,758.514587 
	C1465.286499,758.514587 1539.436523,758.514587 1613.634521,758.514587 
	C1613.634521,625.163879 1613.634521,492.413513 1613.634521,359.718811 
	C1538.803955,359.718811 1464.675293,359.718811 1389.654297,359.718811 
	C1389.654297,422.553192 1389.654297,484.776459 1389.654907,548.999878 
z"/>
<path fill="#000000" opacity="1.000000" stroke="none" 
	d="
M958.000000,2194.026855 
	C717.357605,2194.026855 477.715271,2194.024902 238.072891,2194.034424 
	C228.708923,2194.034912 219.162262,2194.029785 210.759964,2189.569092 
	C195.842407,2181.649414 187.552109,2169.432129 187.600616,2151.848389 
	C187.772614,2089.521973 187.666443,2027.194702 187.666397,1964.867676 
	C187.666168,1608.237183 187.666153,1251.606689 187.666031,894.976135 
	C187.666031,890.713745 187.666031,886.451355 187.666031,881.760559 
	C913.978516,881.760559 1639.329834,881.760559 2365.664551,881.760559 
	C2365.664551,886.000366 2365.664551,889.589966 2365.664551,893.179626 
	C2365.664795,1307.470947 2365.604004,1721.762329 2365.811523,2136.053711 
	C2365.824463,2161.817627 2345.148682,2189.493896 2315.774658,2192.973145 
	C2309.516357,2193.714355 2303.167725,2193.984863 2296.860840,2193.985596 
	C1850.907227,2194.031006 1404.953613,2194.026855 958.000000,2194.026855 
M1078.335083,1707.000122 
	C1078.335083,1680.094482 1078.335083,1653.188721 1078.335083,1625.075317 
	C1119.182617,1625.075317 1158.985962,1625.075317 1199.219238,1625.075317 
	C1199.219238,1448.038330 1199.219238,1272.222656 1199.219238,1095.246826 
	C1159.208496,1095.246826 1119.368286,1095.246826 1078.285889,1095.246826 
	C1078.285889,1046.692017 1078.285889,999.277222 1078.285889,952.036377 
	C1060.969482,949.943665 961.651672,950.705566 953.934082,953.088745 
	C953.934082,1000.010864 953.934082,1047.205566 953.934082,1095.266357 
	C913.532715,1095.266357 873.986938,1095.266357 834.378479,1095.266357 
	C834.378479,1272.204102 834.378479,1448.260376 834.378479,1625.342285 
	C874.552368,1625.342285 914.024170,1625.342285 954.355469,1625.342285 
	C954.355469,1673.528564 954.355469,1720.697754 954.355469,1768.481445 
	C996.024902,1768.481445 1036.813232,1768.481445 1078.335083,1768.481445 
	C1078.335083,1748.250366 1078.335083,1728.625366 1078.335083,1707.000122 
M1889.666626,1372.999878 
	C1889.791748,1456.288940 1889.916260,1539.577881 1890.055786,1622.866943 
	C1890.056274,1623.180542 1890.205933,1623.540527 1890.397705,1623.794312 
	C1890.583496,1624.040161 1890.913696,1624.176880 1892.638916,1625.370483 
	C1930.336548,1625.370483 1969.504761,1625.370483 2009.554199,1625.370483 
	C2009.554199,1673.563599 2009.554199,1720.760376 2009.554199,1768.361694 
	C2051.537598,1768.361694 2092.615723,1768.361694 2134.620850,1768.361694 
	C2134.620850,1720.437500 2134.620850,1673.248291 2134.620850,1625.100830 
	C2145.470215,1625.100830 2155.412842,1625.100830 2165.355469,1625.100830 
	C2175.018799,1625.100830 2184.682129,1625.100830 2194.345459,1625.100830 
	C2204.342041,1625.100830 2214.340332,1625.213013 2224.334717,1625.068848 
	C2234.154297,1624.927246 2244.037354,1625.732178 2253.808594,1624.544556 
	C2253.808594,1447.646851 2253.808594,1271.831177 2253.808594,1095.105103 
	C2233.688965,1095.105103 2214.081055,1095.229004 2194.475342,1095.070312 
	C2174.668945,1094.910034 2154.826172,1095.788818 2134.112305,1094.428711 
	C2134.112305,1046.222900 2134.112305,999.075684 2134.112305,951.606506 
	C2092.271484,951.606506 2051.402588,951.606506 2009.662109,951.606506 
	C2009.662109,968.033203 2009.661987,983.973938 2009.661987,999.914612 
	C2009.661987,1015.575928 2009.702393,1031.237427 2009.650879,1046.898560 
	C2009.598755,1062.716064 2009.889771,1078.548462 2009.426758,1095.258667 
	C1968.819092,1095.258667 1929.614746,1095.258667 1889.666748,1095.258667 
	C1889.666748,1187.807373 1889.666748,1279.403564 1889.666626,1372.999878 
M1749.667847,1799.000122 
	C1749.667847,1680.192505 1749.667847,1561.384888 1749.667847,1441.568115 
	C1708.473267,1441.568115 1668.679077,1441.568115 1628.171875,1441.568115 
	C1628.171875,1393.374146 1628.171875,1346.188965 1628.171875,1298.629395 
	C1586.675049,1298.629395 1545.917358,1298.629395 1504.065918,1298.629395 
	C1504.065918,1346.641357 1504.065918,1394.060913 1504.065918,1442.031738 
	C1493.025757,1442.031738 1483.073242,1442.031616 1473.120605,1442.031616 
	C1463.457764,1442.031616 1453.794800,1442.031616 1444.131958,1442.031616 
	C1434.135864,1442.031616 1424.139526,1441.987427 1414.143799,1442.044312 
	C1404.319824,1442.100342 1394.469604,1441.784058 1384.862549,1442.251709 
	C1384.862549,1619.506592 1384.862549,1795.311646 1384.862549,1972.184326 
	C1424.833130,1972.184326 1464.285767,1972.184326 1504.766479,1972.184326 
	C1504.766479,2020.698242 1504.766479,2068.152100 1504.766479,2115.542480 
	C1546.359253,2115.542480 1586.900024,2115.542480 1628.505615,2115.542480 
	C1628.505615,2067.629639 1628.505615,2020.190430 1628.505615,1971.755493 
	C1669.356934,1971.755493 1709.151855,1971.755493 1749.667847,1971.755493 
	C1749.667847,1914.163330 1749.667847,1857.581787 1749.667847,1799.000122 
M404.330109,1356.999878 
	C404.330109,1385.164185 404.330109,1413.328369 404.330109,1442.289795 
	C363.459015,1442.289795 323.952454,1442.289795 284.251617,1442.289795 
	C284.251617,1619.170654 284.251617,1795.231567 284.251617,1972.111084 
	C324.333954,1972.111084 363.839935,1972.111084 404.409027,1972.111084 
	C404.409027,2020.353760 404.409027,2067.791260 404.409027,2115.376221 
	C446.265991,2115.376221 487.044281,2115.376221 528.334167,2115.376221 
	C528.334167,2102.767334 528.334167,2090.804688 528.334167,2078.842041 
	C528.334229,2067.179443 528.334229,2055.516846 528.334290,2043.854370 
	C528.334351,2031.858643 528.274963,2019.862427 528.351440,2007.867188 
	C528.426819,1996.040039 528.014954,1984.185425 528.641785,1971.700439 
	C569.145691,1971.700439 608.351135,1971.700439 647.740906,1971.700439 
	C647.740906,1794.901001 647.740906,1618.841187 647.740906,1441.667725 
	C607.736084,1441.667725 568.308594,1441.667725 528.168945,1441.667725 
	C528.168945,1393.372803 528.168945,1346.186401 528.168945,1298.632568 
	C486.670563,1298.632568 445.911194,1298.632568 404.330109,1298.632568 
	C404.330109,1317.817505 404.330109,1336.408569 404.330109,1356.999878 
z"/>
<path fill="#000101" opacity="1.000000" stroke="none" 
	d="
M1266.342529,580.000122 
	C1266.342529,639.292297 1266.342529,697.584412 1266.342529,756.494019 
	C906.828674,756.494019 548.055420,756.494019 188.332184,756.494019 
	C188.332184,752.648254 188.332169,749.401672 188.332169,746.155090 
	C188.332169,668.495483 187.925293,590.832825 188.502655,513.177551 
	C188.794434,473.935303 201.792786,438.976166 228.450562,409.526917 
	C259.910095,374.772980 299.206573,357.212891 345.853271,357.186523 
	C648.158997,357.015594 950.464905,357.098907 1252.770752,357.098907 
	C1256.758545,357.098907 1260.746338,357.098877 1265.995605,357.098877 
	C1266.735107,394.353668 1266.229004,431.187653 1266.322021,468.010895 
	C1266.415527,505.007080 1266.342529,542.003662 1266.342529,580.000122 
z"/>
<path fill="#000101" opacity="1.000000" stroke="none" 
	d="
M2276.022949,373.817993 
	C2327.312256,399.618042 2356.831787,440.240326 2364.302734,496.558990 
	C2365.171387,503.107391 2365.603760,509.762451 2365.611328,516.368774 
	C2365.699951,593.005920 2365.667969,669.643250 2365.667969,746.280518 
	C2365.667969,749.929932 2365.667725,753.579407 2365.667725,758.418945 
	C2342.169922,759.965332 2319.018066,758.875366 2295.907959,759.075684 
	C2272.585449,759.277893 2249.259766,759.120239 2225.935303,759.120239 
	C2202.944092,759.120239 2179.952881,759.120239 2156.961670,759.120239 
	C2133.724854,759.120239 2110.488281,759.120239 2086.800293,759.120239 
	C2086.800293,625.430847 2086.800293,492.976135 2086.800293,359.787170 
	C2090.054443,359.538330 2092.932373,359.129608 2095.810791,359.126556 
	C2135.462158,359.084412 2175.115967,358.844330 2214.764160,359.200714 
	C2235.920166,359.390900 2256.250977,364.055634 2276.022949,373.817993 
z"/>
<path fill="#010101" opacity="1.000000" stroke="none" 
	d="
M1963.671387,396.001343 
	C1963.671387,516.551331 1963.671387,636.101501 1963.671387,756.386292 
	C1888.630737,756.386292 1814.196655,756.386292 1739.043579,756.386292 
	C1739.043579,623.586121 1739.043579,490.943420 1739.043579,357.695557 
	C1813.793579,357.695557 1888.199829,357.695557 1963.671387,357.695557 
	C1963.671387,370.510742 1963.671387,382.756165 1963.671387,396.001343 
z"/>
<path fill="#000101" opacity="1.000000" stroke="none" 
	d="
M1389.654541,547.999817 
	C1389.654297,484.776459 1389.654297,422.553192 1389.654297,359.718811 
	C1464.675293,359.718811 1538.803955,359.718811 1613.634521,359.718811 
	C1613.634521,492.413513 1613.634521,625.163879 1613.634521,758.514587 
	C1539.436523,758.514587 1465.286499,758.514587 1389.654907,758.514587 
	C1389.654907,688.571289 1389.654907,618.785583 1389.654541,547.999817 
z"/>
<path fill="#65CCC8" opacity="1.000000" stroke="none" 
	d="
M1078.335083,1708.000244 
	C1078.335083,1728.625366 1078.335083,1748.250366 1078.335083,1768.481445 
	C1036.813232,1768.481445 996.024902,1768.481445 954.355469,1768.481445 
	C954.355469,1720.697754 954.355469,1673.528564 954.355469,1625.342285 
	C914.024170,1625.342285 874.552368,1625.342285 834.378479,1625.342285 
	C834.378479,1448.260376 834.378479,1272.204102 834.378479,1095.266357 
	C873.986938,1095.266357 913.532715,1095.266357 953.934082,1095.266357 
	C953.934082,1047.205566 953.934082,1000.010864 953.934082,953.088745 
	C961.651672,950.705566 1060.969482,949.943665 1078.285889,952.036377 
	C1078.285889,999.277222 1078.285889,1046.692017 1078.285889,1095.246826 
	C1119.368286,1095.246826 1159.208496,1095.246826 1199.219238,1095.246826 
	C1199.219238,1272.222656 1199.219238,1448.038330 1199.219238,1625.075317 
	C1158.985962,1625.075317 1119.182617,1625.075317 1078.335083,1625.075317 
	C1078.335083,1653.188721 1078.335083,1680.094482 1078.335083,1708.000244 
M1026.999390,1501.121216 
	C1042.554443,1501.121216 1058.109375,1501.121216 1073.478149,1501.121216 
	C1075.523682,1483.196289 1074.716431,1226.399658 1072.818848,1219.803101 
	C1034.909912,1219.803101 997.076172,1219.803101 958.820190,1219.803101 
	C958.820190,1313.642822 958.820190,1406.771729 958.820190,1501.121094 
	C981.189148,1501.121094 1003.094238,1501.121094 1026.999390,1501.121216 
z"/>
<path fill="#65CCC8" opacity="1.000000" stroke="none" 
	d="
M1889.666748,1371.999756 
	C1889.666748,1279.403564 1889.666748,1187.807373 1889.666748,1095.258667 
	C1929.614746,1095.258667 1968.819092,1095.258667 2009.426758,1095.258667 
	C2009.889771,1078.548462 2009.598755,1062.716064 2009.650879,1046.898560 
	C2009.702393,1031.237427 2009.661987,1015.575928 2009.661987,999.914612 
	C2009.661987,983.973938 2009.662109,968.033203 2009.662109,951.606506 
	C2051.402588,951.606506 2092.271484,951.606506 2134.112305,951.606506 
	C2134.112305,999.075684 2134.112305,1046.222900 2134.112305,1094.428711 
	C2154.826172,1095.788818 2174.668945,1094.910034 2194.475342,1095.070312 
	C2214.081055,1095.229004 2233.688965,1095.105103 2253.808594,1095.105103 
	C2253.808594,1271.831177 2253.808594,1447.646851 2253.808594,1624.544556 
	C2244.037354,1625.732178 2234.154297,1624.927246 2224.334717,1625.068848 
	C2214.340332,1625.213013 2204.342041,1625.100830 2194.345459,1625.100830 
	C2184.682129,1625.100830 2175.018799,1625.100830 2165.355469,1625.100830 
	C2155.412842,1625.100830 2145.470215,1625.100830 2134.620850,1625.100830 
	C2134.620850,1673.248291 2134.620850,1720.437500 2134.620850,1768.361694 
	C2092.615723,1768.361694 2051.537598,1768.361694 2009.554199,1768.361694 
	C2009.554199,1720.760376 2009.554199,1673.563599 2009.554199,1625.370483 
	C1969.504761,1625.370483 1930.336548,1625.370483 1892.638916,1625.370483 
	C1890.913696,1624.176880 1890.583496,1624.040161 1890.397705,1623.794312 
	C1890.205933,1623.540527 1890.056274,1623.180542 1890.055786,1622.866943 
	C1889.916260,1539.577881 1889.791748,1456.288940 1889.666748,1371.999756 
M2130.332031,1365.000122 
	C2130.332031,1316.521118 2130.332031,1268.042236 2130.332031,1219.773193 
	C2090.717041,1219.773193 2052.586914,1219.773193 2014.535889,1219.773193 
	C2012.565552,1236.535522 2013.288086,1493.249878 2015.254028,1500.444580 
	C2053.380127,1500.444580 2091.511963,1500.444580 2130.332031,1500.444580 
	C2130.332031,1455.518066 2130.332031,1411.259155 2130.332031,1365.000122 
z"/>
<path fill="#65CCC8" opacity="1.000000" stroke="none" 
	d="
M1749.667847,1800.000244 
	C1749.667847,1857.581787 1749.667847,1914.163330 1749.667847,1971.755493 
	C1709.151855,1971.755493 1669.356934,1971.755493 1628.505615,1971.755493 
	C1628.505615,2020.190430 1628.505615,2067.629639 1628.505615,2115.542480 
	C1586.900024,2115.542480 1546.359253,2115.542480 1504.766479,2115.542480 
	C1504.766479,2068.152100 1504.766479,2020.698242 1504.766479,1972.184326 
	C1464.285767,1972.184326 1424.833130,1972.184326 1384.862549,1972.184326 
	C1384.862549,1795.311646 1384.862549,1619.506592 1384.862549,1442.251709 
	C1394.469604,1441.784058 1404.319824,1442.100342 1414.143799,1442.044312 
	C1424.139526,1441.987427 1434.135864,1442.031616 1444.131958,1442.031616 
	C1453.794800,1442.031616 1463.457764,1442.031616 1473.120605,1442.031616 
	C1483.073242,1442.031616 1493.025757,1442.031738 1504.065918,1442.031738 
	C1504.065918,1394.060913 1504.065918,1346.641357 1504.065918,1298.629395 
	C1545.917358,1298.629395 1586.675049,1298.629395 1628.171875,1298.629395 
	C1628.171875,1346.188965 1628.171875,1393.374146 1628.171875,1441.568115 
	C1668.679077,1441.568115 1708.473267,1441.568115 1749.667847,1441.568115 
	C1749.667847,1561.384888 1749.667847,1680.192505 1749.667847,1800.000244 
M1508.324951,1660.999878 
	C1508.324951,1723.127808 1508.324951,1785.255615 1508.324951,1847.401733 
	C1548.054932,1847.401733 1586.489380,1847.401733 1625.026855,1847.401733 
	C1625.026855,1753.409058 1625.026855,1660.054932 1625.026855,1566.664551 
	C1585.943848,1566.664551 1547.513428,1566.664551 1508.324585,1566.664551 
	C1508.324585,1597.866699 1508.324585,1628.433228 1508.324951,1660.999878 
z"/>
<path fill="#65CDC9" opacity="1.000000" stroke="none" 
	d="
M404.330109,1355.999756 
	C404.330109,1336.408569 404.330109,1317.817505 404.330109,1298.632568 
	C445.911194,1298.632568 486.670563,1298.632568 528.168945,1298.632568 
	C528.168945,1346.186401 528.168945,1393.372803 528.168945,1441.667725 
	C568.308594,1441.667725 607.736084,1441.667725 647.740906,1441.667725 
	C647.740906,1618.841187 647.740906,1794.901001 647.740906,1971.700439 
	C608.351135,1971.700439 569.145691,1971.700439 528.641785,1971.700439 
	C528.014954,1984.185425 528.426819,1996.040039 528.351440,2007.867188 
	C528.274963,2019.862427 528.334351,2031.858643 528.334290,2043.854370 
	C528.334229,2055.516846 528.334229,2067.179443 528.334167,2078.842041 
	C528.334167,2090.804688 528.334167,2102.767334 528.334167,2115.376221 
	C487.044281,2115.376221 446.265991,2115.376221 404.409027,2115.376221 
	C404.409027,2067.791260 404.409027,2020.353760 404.409027,1972.111084 
	C363.839935,1972.111084 324.333954,1972.111084 284.251617,1972.111084 
	C284.251617,1795.231567 284.251617,1619.170654 284.251617,1442.289795 
	C323.952454,1442.289795 363.459015,1442.289795 404.330109,1442.289795 
	C404.330109,1413.328369 404.330109,1385.164185 404.330109,1355.999756 
M437.009094,1848.031372 
	C465.868958,1848.031372 494.728821,1848.031372 523.783325,1848.031372 
	C523.783325,1753.571533 523.783325,1660.206787 523.783325,1566.744141 
	C484.832642,1566.744141 446.436707,1566.744141 408.409912,1566.744141 
	C408.409912,1660.828491 408.409912,1754.197021 408.409912,1848.031372 
	C417.765564,1848.031372 426.390411,1848.031372 437.009094,1848.031372 
z"/>
<path fill="#010202" opacity="1.000000" stroke="none" 
	d="
M1025.999268,1501.121094 
	C1003.094238,1501.121094 981.189148,1501.121094 958.820190,1501.121094 
	C958.820190,1406.771729 958.820190,1313.642822 958.820190,1219.803101 
	C997.076172,1219.803101 1034.909912,1219.803101 1072.818848,1219.803101 
	C1074.716431,1226.399658 1075.523682,1483.196289 1073.478149,1501.121216 
	C1058.109375,1501.121216 1042.554443,1501.121216 1025.999268,1501.121094 
z"/>
<path fill="#000101" opacity="1.000000" stroke="none" 
	d="
M2130.332031,1366.000244 
	C2130.332031,1411.259155 2130.332031,1455.518066 2130.332031,1500.444580 
	C2091.511963,1500.444580 2053.380127,1500.444580 2015.254028,1500.444580 
	C2013.288086,1493.249878 2012.565552,1236.535522 2014.535889,1219.773193 
	C2052.586914,1219.773193 2090.717041,1219.773193 2130.332031,1219.773193 
	C2130.332031,1268.042236 2130.332031,1316.521118 2130.332031,1366.000244 
z"/>
<path fill="#010202" opacity="1.000000" stroke="none" 
	d="
M1508.324707,1659.999756 
	C1508.324585,1628.433228 1508.324585,1597.866699 1508.324585,1566.664551 
	C1547.513428,1566.664551 1585.943848,1566.664551 1625.026855,1566.664551 
	C1625.026855,1660.054932 1625.026855,1753.409058 1625.026855,1847.401733 
	C1586.489380,1847.401733 1548.054932,1847.401733 1508.324951,1847.401733 
	C1508.324951,1785.255615 1508.324951,1723.127808 1508.324707,1659.999756 
z"/>
<path fill="#000000" opacity="1.000000" stroke="none" 
	d="
M436.012146,1848.031372 
	C426.390411,1848.031372 417.765564,1848.031372 408.409912,1848.031372 
	C408.409912,1754.197021 408.409912,1660.828491 408.409912,1566.744141 
	C446.436707,1566.744141 484.832642,1566.744141 523.783325,1566.744141 
	C523.783325,1660.206787 523.783325,1753.571533 523.783325,1848.031372 
	C494.728821,1848.031372 465.868958,1848.031372 436.012146,1848.031372 
z"/>
</svg>