<svg width="16" height="16" viewBox="0 0 16 16" fill="none" xmlns="http://www.w3.org/2000/svg">
<path d="M2.40808 12.1538C2.93521 12.1538 3.15458 11.7335 3.60273 11.5343C4.03673 11.3415 4.50718 11.3574 4.99649 11.3574C5.47353 11.3574 5.97784 11.437 6.43007 11.437C6.58543 11.437 6.50484 11.3012 6.63802 11.2821C6.89508 11.2454 7.17687 11.2775 7.42561 11.3397C7.64543 11.3946 7.93944 11.5047 8.1424 11.5166C8.35706 11.5293 8.52378 11.7032 8.73972 11.7511C8.96557 11.8013 9.15653 11.7047 9.35474 11.7733C9.66431 11.8804 9.79166 11.9945 10.1335 11.9945C10.4122 11.9945 10.691 11.9945 10.9697 11.9945C11.4126 11.9945 11.7881 11.9149 12.244 11.9149C12.6714 11.9149 12.5186 11.8892 12.1865 12.0122C11.8657 12.131 11.6074 12.2334 11.2485 12.2334C10.7553 12.2334 10.1072 12.1743 9.65562 12.375C9.33143 12.5191 8.84548 12.471 8.50079 12.5476C8.33118 12.5853 8.01332 12.6317 7.86364 12.6317C7.41233 12.6317 6.96102 12.6317 6.50971 12.6317C6.03586 12.6317 5.65921 12.4724 5.19559 12.4724C4.68571 12.4724 5.43512 12.2555 5.59381 12.2379C5.98364 12.1945 6.37725 12.1538 6.77076 12.1538C7.45636 12.1538 8.10913 12.3131 8.77954 12.3131C9.14531 12.3131 9.51108 12.3131 9.87685 12.3131C10.0495 12.3131 10.1213 12.324 10.2308 12.1892C10.3554 12.0359 11.0874 12.1538 11.2839 12.1538C11.9327 12.1538 12.4908 12.4247 13.0006 11.9149" stroke="#16A34A" stroke-width="3" stroke-linecap="round"/>
<path d="M6.50004 2.06959V5.87892C6.50004 6.07591 6.46125 6.27096 6.38587 6.45295C6.31049 6.63494 6.2 6.8003 6.06071 6.93959L3.33338 9.66692M6.50004 2.06959C6.33271 2.08492 6.16604 2.10292 6.00004 2.12426M6.50004 2.06959C7.49789 1.9768 8.5022 1.9768 9.50004 2.06959M3.33338 9.66692L3.84671 9.53826C5.24204 9.19346 6.71459 9.35726 8.00004 10.0003C9.2855 10.6433 10.758 10.8071 12.1534 10.4623L13.2 10.2003M3.33338 9.66692L1.86538 11.1356C1.04338 11.9563 1.43138 13.3469 2.57671 13.5423C4.33938 13.8436 6.15138 14.0003 8.00004 14.0003C9.81751 14.0009 11.6318 13.8477 13.4234 13.5423C14.568 13.3469 14.956 11.9563 14.1347 11.1349L13.2 10.2003M9.50004 2.06959V5.87892C9.50004 6.27692 9.65804 6.65892 9.93938 6.93959L13.2 10.2003M9.50004 2.06959C9.66738 2.08492 9.83404 2.10292 10 2.12426" stroke="black" stroke-width="1.5" stroke-linecap="round" stroke-linejoin="round"/>
</svg>
